<svg width="62.535156" height="60.000000" viewBox="0 0 62.5352 60" fill="none" xmlns="http://www.w3.org/2000/svg" xmlns:xlink="http://www.w3.org/1999/xlink">
	<desc>
			Created with Pixso.
	</desc>
	<defs/>
	<path d="M59.92 7.5L14.03 7.5L13.13 2.29C12.9 0.96 11.82 0 10.57 0L1.3 0C0.58 0 0 0.62 0 1.4L0 2.34C0 3.12 0.58 3.75 1.3 3.75L9.84 3.75L17.44 47.45C16.31 48.78 15.63 50.55 15.63 52.5C15.63 56.64 18.74 60 22.58 60C26.41 60 29.53 56.64 29.53 52.5C29.53 51.18 29.21 49.88 28.59 48.75L44.35 48.75C43.74 49.88 43.42 51.18 43.42 52.5C43.42 56.64 46.53 60 50.37 60C54.21 60 57.32 56.64 57.32 52.5C57.32 50.39 56.51 48.48 55.21 47.12C54.93 45.92 53.93 45 52.69 45L20.54 45L19.24 37.5L55.22 37.5C56.45 37.5 57.52 36.56 57.77 35.26L62.47 10.88C62.81 9.13 61.58 7.5 59.92 7.5ZM50.37 48.75C52.29 48.75 53.84 50.43 53.84 52.5C53.84 54.56 52.29 56.25 50.37 56.25C48.45 56.25 46.9 54.56 46.9 52.5C46.9 50.43 48.45 48.75 50.37 48.75ZM22.58 48.75C24.49 48.75 26.05 50.43 26.05 52.5C26.05 54.56 24.49 56.25 22.58 56.25C20.66 56.25 19.1 54.56 19.1 52.5C19.1 50.43 20.66 48.75 22.58 48.75ZM54.51 33.75L18.59 33.75L14.68 11.25L58.86 11.25L54.51 33.75ZM29.53 22.96L29.53 22.03C29.53 21.25 30.11 20.62 30.83 20.62L34.74 20.62L34.74 16.4C34.74 15.62 35.32 15 36.04 15L36.91 15C37.63 15 38.21 15.62 38.21 16.4L38.21 20.62L42.12 20.62C42.84 20.62 43.42 21.25 43.42 22.03L43.42 22.96C43.42 23.74 42.84 24.37 42.12 24.37L38.21 24.37L38.21 28.59C38.21 29.37 37.63 30 36.91 30L36.04 30C35.32 30 34.74 29.37 34.74 28.59L34.74 24.37L30.83 24.37C30.11 24.37 29.53 23.74 29.53 22.96Z" fill="#FFFFFF" fill-opacity="1.000000" fill-rule="nonzero"/>
</svg>
