<svg width="19.999756" height="23.076904" viewBox="0 0 19.9998 23.0769" fill="none" xmlns="http://www.w3.org/2000/svg" xmlns:xlink="http://www.w3.org/1999/xlink">
	<desc>
			Created with Pixso.
	</desc>
	<defs/>
	<path d="M17.24 8.65C17.57 8.65 17.89 8.46 18.12 8.12L19.81 5.68C20.06 5.33 20.06 4.76 19.81 4.41L18.12 1.97C17.89 1.63 17.57 1.44 17.24 1.44L10.62 1.44L10.62 0.36C10.62 0.16 10.48 0 10.31 0L9.68 0C9.51 0 9.37 0.16 9.37 0.36L9.37 1.44L2.18 1.44C1.66 1.44 1.24 2.04 1.24 2.79L1.24 7.3C1.24 8.04 1.66 8.65 2.18 8.65L9.37 8.65L9.37 10.09L2.75 10.09C2.42 10.09 2.1 10.28 1.87 10.62L0.18 13.06C-0.07 13.41 -0.07 13.98 0.18 14.33L1.87 16.77C2.1 17.11 2.42 17.3 2.75 17.3L9.37 17.3L9.37 22.71C9.37 22.91 9.51 23.07 9.68 23.07L10.31 23.07C10.48 23.07 10.62 22.91 10.62 22.71L10.62 17.3L17.81 17.3C18.33 17.3 18.74 16.7 18.74 15.95L18.74 11.44C18.74 10.7 18.33 10.09 17.81 10.09L10.62 10.09L10.62 8.65L17.24 8.65ZM17.49 15.86L2.84 15.86L1.34 13.7L2.84 11.53L17.49 11.53L17.49 15.86ZM2.5 2.88L17.15 2.88L18.65 5.04L17.15 7.21L2.5 7.21L2.5 2.88Z" fill="#FFFFFF" fill-opacity="1.000000" fill-rule="nonzero"/>
</svg>
